<?xml version="1.0" encoding="UTF-8"?>
<svg width="32px" height="32px" viewBox="0 0 32 32" version="1.1" xmlns="http://www.w3.org/2000/svg" xmlns:xlink="http://www.w3.org/1999/xlink">
    <!-- Generator: Sketch 61.2 (89653) - https://sketch.com -->
    <title>icon-instagram</title>
    <desc>Created with Sketch.</desc>
    <g id="Seventh-Gen" stroke="none" stroke-width="1" fill="none" fill-rule="evenodd">
        <path d="M22.4536399,3.00223623 C26.7809052,3.19917204 28.8021586,5.25236098 28.9990944,9.54769077 C29.076272,11.2309597 29.0909091,11.7366057 29.0909091,16 C29.0909091,20.2647249 29.0749413,20.7690403 28.9990944,22.4523092 C28.800828,26.7436471 26.7848972,28.800828 22.4536399,28.9977638 C20.7690403,29.0749413 20.2660556,29.0909091 16,29.0909091 C11.7366057,29.0909091 11.2309597,29.0749413 9.54769077,28.9977638 C5.20978026,28.7994973 3.19917204,26.7369938 3.00223623,22.4509786 C2.92505868,20.7677096 2.90909091,20.2633943 2.90909091,15.9986694 C2.90909091,11.7352751 2.92638933,11.2309597 3.00223623,9.54636012 C3.20050269,5.25236098 5.2164335,3.19784139 9.54769077,3.00090558 C11.2322904,2.92505868 11.7366057,2.90909091 16,2.90909091 C20.2633943,2.90909091 20.7690403,2.92505868 22.4536399,3.00223623 Z M16,0 C11.6546667,0 11.1106667,0.0186666667 9.404,0.096 C3.59333333,0.362666667 0.364,3.58666667 0.0973333333,9.40266667 C0.0186666667,11.1106667 0,11.6546667 0,16 C0,20.3453333 0.0186666667,20.8906667 0.096,22.5973333 C0.362666667,28.408 3.58666667,31.6373333 9.40266667,31.904 C11.1106667,31.9813333 11.6546667,32 16,32 C20.3453333,32 20.8906667,31.9813333 22.5973333,31.904 C28.4026667,31.6373333 31.64,28.4133333 31.9026667,22.5973333 C31.9813333,20.8906667 32,20.3453333 32,16 C32,11.6546667 31.9813333,11.1106667 31.904,9.404 C31.6426667,3.59866667 28.4146667,0.364 22.5986667,0.0973333333 C20.8906667,0.0186666667 20.3453333,0 16,0 Z M16,7.75757576 C11.4480737,7.75757576 7.75757576,11.4477743 7.75757576,15.9993312 C7.75757576,20.5508882 11.4480737,24.2424242 16,24.2424242 C20.5519263,24.2424242 24.2424242,20.5522257 24.2424242,15.9993312 C24.2424242,11.4477743 20.5519263,7.75757576 16,7.75757576 Z M16,21.3333333 C13.0546667,21.3333333 10.6666667,18.9466667 10.6666667,16 C10.6666667,13.0546667 13.0546667,10.6666667 16,10.6666667 C18.9453333,10.6666667 21.3333333,13.0546667 21.3333333,16 C21.3333333,18.9466667 18.9453333,21.3333333 16,21.3333333 Z M24.243771,5.81818182 C23.1717172,5.81818182 22.3030303,6.68686869 22.3030303,7.75757576 C22.3030303,8.82828283 23.1717172,9.6969697 24.243771,9.6969697 C25.3144781,9.6969697 26.1818182,8.82828283 26.1818182,7.75757576 C26.1818182,6.68686869 25.3144781,5.81818182 24.243771,5.81818182 Z" id="icon-instagram" fill="#B1B5B6" fill-rule="nonzero"></path>
    </g>
</svg>